<svg width="184" height="80" viewBox="0 0 184 80" fill="none" xmlns="http://www.w3.org/2000/svg">
<g filter="url(#filter0_d_1415_647)">
<path d="M15 17C15 13.134 18.134 10 22 10H54C57.866 10 61 13.134 61 17V49C61 52.866 57.866 56 54 56H37.2329C35.8167 56 34.4724 56.6235 33.5577 57.7045L33.1436 58.194C31.3061 60.3655 27.9084 60.201 26.2893 57.8623C25.4818 56.696 24.1535 56 22.735 56H21.5619C17.9379 56 15 53.0621 15 49.4381V17Z" fill="#2D2D2D"/>
</g>
<g clip-path="url(#clip0_1415_647)">
<path d="M42.311 33.5902C41.4535 31.5819 39.6561 30.1668 37.5027 29.8049C35.3494 29.4431 33.1881 30.1931 31.7215 31.8109L28.187 35.709C27.6005 36.3557 27.2454 37.1571 27.16 38.0259C27.0746 38.895 27.2671 39.7499 27.7164 40.4989C28.1663 41.2474 28.8308 41.819 29.6382 42.152C30.4456 42.485 31.32 42.5476 32.1669 42.3335L32.2236 42.319C34.3515 41.7976 36.6176 42.1865 38.4505 43.3894C38.9233 43.6996 39.4452 43.904 39.991 43.9957C40.2877 44.0456 40.5919 44.0621 40.899 44.0444C41.7709 43.9937 42.5857 43.6707 43.2557 43.1102C43.9253 42.5499 44.3869 41.8046 44.5904 40.9552C44.7939 40.1058 44.7202 39.2326 44.3774 38.4294L42.311 33.5902Z" fill="#F4CB38"/>
<path d="M29.6763 31.4615C30.5632 31.2815 31.3089 30.7165 31.7761 29.8704C32.2207 29.0654 32.3584 28.0954 32.1636 27.1387C31.9684 26.1826 31.4622 25.3439 30.7382 24.7766C29.9776 24.181 29.0704 23.9524 28.1848 24.1332C26.4034 24.4954 25.288 26.4342 25.6985 28.4561C26.0274 30.0658 27.2265 31.2486 28.6009 31.4795C28.9518 31.5385 29.3142 31.5354 29.6763 31.4615Z" fill="#F4CB38"/>
<path d="M35.6852 28.9518C37.7771 29.3033 39.8048 27.6503 40.2053 25.2671C40.6058 22.8832 39.2298 20.6579 37.138 20.3064C35.0463 19.9549 33.0187 21.6083 32.6181 23.9922C32.2177 26.3755 33.5936 28.6003 35.6852 28.9518Z" fill="#F4CB38"/>
<path d="M42.0586 31.1146L42.0588 31.1146C42.3626 31.2755 42.6824 31.3817 43.0093 31.4366C44.5348 31.6929 46.2081 30.8324 47.0621 29.2213C47.5539 28.2939 47.7069 27.2517 47.493 26.2867C47.2693 25.2766 46.6755 24.4709 45.8208 24.0179C44.9659 23.5649 43.9657 23.5259 43.0042 23.9077C42.0856 24.2725 41.3092 24.9842 40.8178 25.9117C39.7809 27.8681 40.3376 30.2021 42.0586 31.1146Z" fill="#F4CB38"/>
<path d="M50.1327 31.9523L50.1322 31.9516C48.8686 30.6436 46.6336 30.743 45.1493 32.1736C43.6662 33.6052 43.4858 35.8347 44.7471 37.1431C45.207 37.6206 45.7964 37.9109 46.4317 38.0176C47.5389 38.2037 48.7858 37.8321 49.7305 36.9223C51.2135 35.4906 51.394 33.2612 50.1327 31.9523Z" fill="#F4CB38"/>
</g>
<path d="M85.092 26.4C86.256 26.4 87.27 26.592 88.134 26.976C88.998 27.36 89.664 27.912 90.132 28.632C90.6 29.352 90.834 30.192 90.834 31.152C90.834 32.112 90.6 32.952 90.132 33.672C89.664 34.392 88.998 34.944 88.134 35.328C87.27 35.712 86.256 35.904 85.092 35.904H83.274V39H79.026V26.4H85.092ZM84.822 32.628C85.398 32.628 85.83 32.502 86.118 32.25C86.406 31.986 86.55 31.62 86.55 31.152C86.55 30.684 86.406 30.324 86.118 30.072C85.83 29.808 85.398 29.676 84.822 29.676H83.274V32.628H84.822ZM103.873 35.796V39H93.3972V26.4H103.639V29.604H97.5732V31.08H102.901V34.14H97.5732V35.796H103.873ZM109.415 29.694H105.725V26.4H117.353V29.694H113.663V39H109.415V29.694ZM130.89 39.288C129.846 39.288 128.826 39.174 127.83 38.946C126.846 38.706 126.036 38.388 125.4 37.992L126.768 34.896C127.368 35.244 128.04 35.526 128.784 35.742C129.528 35.946 130.242 36.048 130.926 36.048C131.514 36.048 131.934 35.994 132.186 35.886C132.438 35.766 132.564 35.592 132.564 35.364C132.564 35.1 132.396 34.902 132.06 34.77C131.736 34.638 131.196 34.494 130.44 34.338C129.468 34.134 128.658 33.918 128.01 33.69C127.362 33.45 126.798 33.066 126.318 32.538C125.838 31.998 125.598 31.272 125.598 30.36C125.598 29.568 125.82 28.848 126.264 28.2C126.708 27.552 127.368 27.042 128.244 26.67C129.132 26.298 130.206 26.112 131.466 26.112C132.33 26.112 133.176 26.208 134.004 26.4C134.844 26.58 135.582 26.85 136.218 27.21L134.94 30.288C133.704 29.664 132.534 29.352 131.43 29.352C130.338 29.352 129.792 29.616 129.792 30.144C129.792 30.396 129.954 30.588 130.278 30.72C130.602 30.84 131.136 30.972 131.88 31.116C132.84 31.296 133.65 31.506 134.31 31.746C134.97 31.974 135.54 32.352 136.02 32.88C136.512 33.408 136.758 34.128 136.758 35.04C136.758 35.832 136.536 36.552 136.092 37.2C135.648 37.836 134.982 38.346 134.094 38.73C133.218 39.102 132.15 39.288 130.89 39.288ZM151.612 26.4V39H147.364V34.356H143.44V39H139.192V26.4H143.44V30.864H147.364V26.4H151.612ZM161.435 39.288C160.079 39.288 158.861 39.006 157.781 38.442C156.701 37.878 155.855 37.098 155.243 36.102C154.631 35.094 154.325 33.96 154.325 32.7C154.325 31.44 154.631 30.312 155.243 29.316C155.855 28.308 156.701 27.522 157.781 26.958C158.861 26.394 160.079 26.112 161.435 26.112C162.791 26.112 164.009 26.394 165.089 26.958C166.169 27.522 167.015 28.308 167.627 29.316C168.239 30.312 168.545 31.44 168.545 32.7C168.545 33.96 168.239 35.094 167.627 36.102C167.015 37.098 166.169 37.878 165.089 38.442C164.009 39.006 162.791 39.288 161.435 39.288ZM161.435 35.85C161.963 35.85 162.437 35.724 162.857 35.472C163.289 35.208 163.631 34.842 163.883 34.374C164.135 33.894 164.261 33.336 164.261 32.7C164.261 32.064 164.135 31.512 163.883 31.044C163.631 30.564 163.289 30.198 162.857 29.946C162.437 29.682 161.963 29.55 161.435 29.55C160.907 29.55 160.427 29.682 159.995 29.946C159.575 30.198 159.239 30.564 158.987 31.044C158.735 31.512 158.609 32.064 158.609 32.7C158.609 33.336 158.735 33.894 158.987 34.374C159.239 34.842 159.575 35.208 159.995 35.472C160.427 35.724 160.907 35.85 161.435 35.85ZM177.323 26.4C178.487 26.4 179.501 26.592 180.365 26.976C181.229 27.36 181.895 27.912 182.363 28.632C182.831 29.352 183.065 30.192 183.065 31.152C183.065 32.112 182.831 32.952 182.363 33.672C181.895 34.392 181.229 34.944 180.365 35.328C179.501 35.712 178.487 35.904 177.323 35.904H175.505V39H171.257V26.4H177.323ZM177.053 32.628C177.629 32.628 178.061 32.502 178.349 32.25C178.637 31.986 178.781 31.62 178.781 31.152C178.781 30.684 178.637 30.324 178.349 30.072C178.061 29.808 177.629 29.676 177.053 29.676H175.505V32.628H177.053Z" fill="white"/>
<defs>
<filter id="filter0_d_1415_647" x="0" y="0" width="76" height="79.7246" filterUnits="userSpaceOnUse" color-interpolation-filters="sRGB">
<feFlood flood-opacity="0" result="BackgroundImageFix"/>
<feColorMatrix in="SourceAlpha" type="matrix" values="0 0 0 0 0 0 0 0 0 0 0 0 0 0 0 0 0 0 127 0" result="hardAlpha"/>
<feOffset dy="5"/>
<feGaussianBlur stdDeviation="7.5"/>
<feColorMatrix type="matrix" values="0 0 0 0 0 0 0 0 0 0 0 0 0 0 0 0 0 0 0.33 0"/>
<feBlend mode="normal" in2="BackgroundImageFix" result="effect1_dropShadow_1415_647"/>
<feBlend mode="normal" in="SourceGraphic" in2="effect1_dropShadow_1415_647" result="shape"/>
</filter>
<clipPath id="clip0_1415_647">
<rect width="26.1895" height="26.1895" fill="white" transform="translate(27.3399 17) rotate(9.53851)"/>
</clipPath>
</defs>
</svg>
