<svg width="7" height="13" viewBox="0 0 7 13" fill="none" xmlns="http://www.w3.org/2000/svg">
<path d="M0.426139 6.9238H1.85115V12.7903C1.85115 12.9061 1.945 13 2.06083 13H4.47698C4.59281 13 4.68666 12.9061 4.68666 12.7903V6.95144H6.32483C6.43134 6.95144 6.52096 6.87151 6.53312 6.7657L6.78192 4.60594C6.78876 4.54652 6.76993 4.48701 6.73017 4.44244C6.69038 4.39782 6.63343 4.37228 6.57367 4.37228H4.68674V3.01843C4.68674 2.61032 4.90648 2.40336 5.33993 2.40336C5.4017 2.40336 6.57367 2.40336 6.57367 2.40336C6.6895 2.40336 6.78335 2.30947 6.78335 2.19369V0.211229C6.78335 0.0954032 6.6895 0.00155161 6.57367 0.00155161H4.8734C4.8614 0.000964516 4.83477 0 4.79552 0C4.50051 0 3.47506 0.0579128 2.66503 0.803106C1.76753 1.6289 1.89229 2.61766 1.9221 2.78909V4.37224H0.426139C0.310313 4.37224 0.216461 4.46609 0.216461 4.58191V6.71408C0.216461 6.82991 0.310313 6.9238 0.426139 6.9238Z" fill="#2E2E30"/>
</svg>
