<svg width="18" height="16" viewBox="0 0 18 16" fill="none" xmlns="http://www.w3.org/2000/svg">
<path d="M13.2188 0.124991C13.8809 0.124991 14.502 0.250968 15.082 0.502921C15.6621 0.754874 16.1689 1.09472 16.6025 1.52245C17.0361 1.95019 17.376 2.45702 17.6221 3.04296C17.8682 3.6289 17.9941 4.24999 18 4.90624C18 5.54491 17.8799 6.15722 17.6396 6.74315C17.3994 7.32909 17.0537 7.84472 16.6025 8.29003L9 15.8838L1.39746 8.29003C0.952148 7.84472 0.609375 7.32909 0.369141 6.74315C0.128906 6.15722 0.00585938 5.54491 0 4.90624C0 4.24999 0.123047 3.63183 0.369141 3.05175C0.615234 2.47167 0.958008 1.96483 1.39746 1.53124C1.83691 1.09765 2.34375 0.754874 2.91797 0.502921C3.49219 0.250968 4.11328 0.124991 4.78125 0.124991C5.26758 0.124991 5.70117 0.180655 6.08203 0.291983C6.46289 0.403312 6.81445 0.555655 7.13672 0.749015C7.45898 0.942374 7.76953 1.17968 8.06836 1.46093C8.36719 1.74218 8.67773 2.04394 9 2.3662C9.32227 2.03808 9.62988 1.73632 9.92285 1.46093C10.2158 1.18554 10.5264 0.951163 10.8545 0.757804C11.1826 0.564444 11.5371 0.409171 11.918 0.291983C12.2988 0.174796 12.7324 0.119132 13.2188 0.124991ZM15.8027 7.49022C16.1484 7.14452 16.4121 6.74901 16.5938 6.3037C16.7754 5.85839 16.8662 5.39257 16.8662 4.90624C16.8662 4.39647 16.7725 3.92187 16.585 3.48241C16.3975 3.04296 16.1396 2.65917 15.8115 2.33105C15.4834 2.00292 15.0967 1.74804 14.6514 1.5664C14.2061 1.38476 13.7285 1.29101 13.2188 1.28515C12.7266 1.28515 12.29 1.36132 11.9092 1.51366C11.5283 1.66601 11.1768 1.87108 10.8545 2.1289C10.5322 2.38671 10.2246 2.67089 9.93164 2.98144C9.63867 3.29198 9.32812 3.61718 9 3.95702C8.68359 3.64062 8.37598 3.32128 8.07715 2.99901C7.77832 2.67675 7.46777 2.38671 7.14551 2.1289C6.82324 1.87108 6.46875 1.66015 6.08203 1.49608C5.69531 1.33202 5.26172 1.24999 4.78125 1.24999C4.27734 1.24999 3.80273 1.34374 3.35742 1.53124C2.91211 1.71874 2.52539 1.97948 2.19727 2.31347C1.86914 2.64745 1.6084 3.0371 1.41504 3.48241C1.22168 3.92773 1.125 4.40233 1.125 4.90624C1.125 5.39257 1.21582 5.85839 1.39746 6.3037C1.5791 6.74901 1.8457 7.14452 2.19727 7.49022L9 14.293L15.8027 7.49022Z" fill="white"/>
</svg>
