<svg width="14" height="9" viewBox="0 0 14 9" fill="none" xmlns="http://www.w3.org/2000/svg">
<path fill-rule="evenodd" clip-rule="evenodd" d="M6.62231 8.10523H7.40719C7.40719 8.10523 7.64427 8.0779 7.76531 7.94089C7.87672 7.81511 7.87316 7.5789 7.87316 7.5789C7.87316 7.5789 7.85783 6.47308 8.34662 6.31024C8.82845 6.14984 9.44719 7.379 10.103 7.85161C10.5989 8.20929 10.9758 8.13087 10.9758 8.13087L12.7293 8.10523C12.7293 8.10523 13.6466 8.04589 13.2117 7.28859C13.176 7.22664 12.9584 6.72838 11.9079 5.70455C10.8084 4.63299 10.9556 4.80631 12.2801 2.95274C13.0867 1.82391 13.4092 1.13474 13.3085 0.839566C13.2124 0.558433 12.6191 0.63274 12.6191 0.63274L10.6447 0.645655C10.6447 0.645655 10.4984 0.624692 10.3898 0.692823C10.2838 0.759643 10.2155 0.915371 10.2155 0.915371C10.2155 0.915371 9.903 1.7889 9.48623 2.53179C8.60705 4.09936 8.25553 4.18209 8.11185 4.08476C7.77761 3.85791 7.86104 3.17342 7.86104 2.68715C7.86104 1.16805 8.08047 0.534662 7.43375 0.370699C7.21912 0.316232 7.06119 0.280295 6.51233 0.274493C5.80785 0.266819 5.21157 0.276739 4.87394 0.450435C4.64934 0.56592 4.47607 0.823282 4.5816 0.838069C4.71208 0.856412 5.00764 0.921735 5.16433 1.14578C5.36665 1.43477 5.35952 2.08389 5.35952 2.08389C5.35952 2.08389 5.47575 3.87213 5.08803 4.09431C4.82189 4.24667 4.45682 3.93559 3.67301 2.51345C3.27139 1.78497 2.96817 0.979758 2.96817 0.979758C2.96817 0.979758 2.9097 0.829271 2.80542 0.748787C2.67886 0.65127 2.50202 0.6202 2.50202 0.6202L0.625843 0.633115C0.625843 0.633115 0.344193 0.641351 0.240803 0.769938C0.148821 0.8843 0.233494 1.12089 0.233494 1.12089C0.233494 1.12089 1.70235 4.7292 3.36551 6.54758C4.89052 8.21472 6.62231 8.10523 6.62231 8.10523Z" fill="#2E2E30"/>
</svg>
